<?xml version="1.0" encoding="UTF-8"?>
<svg xmlns="http://www.w3.org/2000/svg" xmlns:xlink="http://www.w3.org/1999/xlink" width="1920" height="1080" viewBox="0 0 1920 1080">
<defs>
<g>
<g id="glyph-0-0">
<path d="M 0.164062 -0.261719 C 0.695312 -0.316406 1.039062 -0.414062 1.195312 -0.546875 C 1.351562 -0.679688 1.433594 -1.019531 1.433594 -1.566406 L 1.433594 -7.992188 C 1.433594 -8.503906 1.355469 -8.839844 1.199219 -8.996094 C 1.042969 -9.152344 0.699219 -9.25 0.164062 -9.289062 L 0.164062 -9.558594 L 7.835938 -9.558594 L 7.886719 -7.484375 L 7.519531 -7.484375 C 7.398438 -8.121094 7.210938 -8.535156 6.96875 -8.722656 C 6.722656 -8.910156 6.179688 -9.007812 5.332031 -9.007812 L 3.371094 -9.007812 C 3.160156 -9.007812 3.027344 -8.972656 2.980469 -8.902344 C 2.929688 -8.835938 2.90625 -8.707031 2.90625 -8.519531 L 2.90625 -5.296875 L 5.128906 -5.296875 C 5.742188 -5.296875 6.136719 -5.386719 6.304688 -5.570312 C 6.472656 -5.753906 6.609375 -6.125 6.714844 -6.6875 L 7.054688 -6.6875 L 7.054688 -3.34375 L 6.714844 -3.34375 C 6.605469 -3.902344 6.46875 -4.273438 6.296875 -4.453125 C 6.128906 -4.632812 5.738281 -4.726562 5.128906 -4.726562 L 2.90625 -4.726562 L 2.90625 -1.148438 C 2.90625 -0.863281 2.996094 -0.695312 3.175781 -0.640625 C 3.359375 -0.589844 3.898438 -0.5625 4.804688 -0.5625 C 5.78125 -0.5625 6.503906 -0.671875 6.96875 -0.886719 C 7.433594 -1.097656 7.851562 -1.617188 8.222656 -2.441406 L 8.625 -2.441406 L 7.96875 0 L 0.164062 0 Z "/>
</g>
<g id="glyph-0-1">
<path d="M 5.347656 -9.726562 C 5.867188 -9.726562 6.402344 -9.648438 6.953125 -9.492188 C 7.503906 -9.335938 7.8125 -9.261719 7.878906 -9.261719 C 8.015625 -9.261719 8.144531 -9.296875 8.265625 -9.375 C 8.386719 -9.449219 8.472656 -9.566406 8.519531 -9.726562 L 8.824219 -9.726562 L 8.957031 -6.480469 L 8.625 -6.480469 C 8.433594 -7.125 8.179688 -7.644531 7.871094 -8.039062 C 7.277344 -8.78125 6.480469 -9.15625 5.480469 -9.15625 C 4.46875 -9.15625 3.644531 -8.753906 3 -7.957031 C 2.359375 -7.15625 2.039062 -6.054688 2.039062 -4.65625 C 2.039062 -3.367188 2.375 -2.339844 3.050781 -1.570312 C 3.726562 -0.800781 4.578125 -0.417969 5.613281 -0.417969 C 6.363281 -0.417969 7.050781 -0.59375 7.679688 -0.953125 C 8.042969 -1.15625 8.441406 -1.460938 8.871094 -1.867188 L 9.140625 -1.601562 C 8.820312 -1.195312 8.421875 -0.839844 7.949219 -0.535156 C 7.140625 -0.0195312 6.261719 0.238281 5.316406 0.238281 C 3.765625 0.238281 2.535156 -0.257812 1.621094 -1.25 C 0.78125 -2.164062 0.359375 -3.308594 0.359375 -4.683594 C 0.359375 -6.089844 0.804688 -7.269531 1.691406 -8.222656 C 2.628906 -9.226562 3.847656 -9.726562 5.347656 -9.726562 Z "/>
</g>
<g id="glyph-0-2">
<rect x="0" y="0" width="0" height="0" mask="url(#mask-0)"/>
</g>
<g id="glyph-0-3">
<path d="M 4.273438 -9.691406 C 4.292969 -9.667969 4.304688 -9.648438 4.304688 -9.636719 C 4.308594 -9.625 4.308594 -9.597656 4.308594 -9.558594 L 4.308594 -1.066406 C 4.308594 -0.703125 4.40625 -0.472656 4.597656 -0.375 C 4.789062 -0.277344 5.152344 -0.214844 5.675781 -0.199219 L 5.675781 0 L 1.699219 0 L 1.699219 -0.210938 C 2.269531 -0.238281 2.640625 -0.316406 2.8125 -0.445312 C 2.988281 -0.570312 3.074219 -0.847656 3.074219 -1.269531 L 3.074219 -7.800781 C 3.074219 -8.027344 3.046875 -8.199219 2.992188 -8.316406 C 2.933594 -8.433594 2.8125 -8.492188 2.625 -8.492188 C 2.5 -8.492188 2.34375 -8.457031 2.148438 -8.390625 C 1.953125 -8.320312 1.769531 -8.25 1.601562 -8.175781 L 1.601562 -8.371094 L 4.1875 -9.691406 Z "/>
</g>
<g id="glyph-0-4">
<path d="M 1.121094 -1.226562 C 1.378906 -1.226562 1.722656 -1.09375 2.148438 -0.824219 C 2.574219 -0.558594 2.933594 -0.421875 3.230469 -0.421875 C 3.886719 -0.421875 4.378906 -0.644531 4.695312 -1.089844 C 5.015625 -1.535156 5.175781 -2.015625 5.175781 -2.539062 C 5.175781 -3.042969 5.046875 -3.484375 4.789062 -3.863281 C 4.351562 -4.507812 3.613281 -4.832031 2.574219 -4.832031 C 2.511719 -4.832031 2.453125 -4.828125 2.398438 -4.828125 C 2.339844 -4.824219 2.277344 -4.820312 2.199219 -4.808594 L 2.1875 -4.992188 C 2.9375 -5.265625 3.53125 -5.578125 3.964844 -5.929688 C 4.398438 -6.285156 4.613281 -6.75 4.613281 -7.328125 C 4.613281 -7.839844 4.441406 -8.230469 4.101562 -8.5 C 3.761719 -8.765625 3.371094 -8.902344 2.933594 -8.902344 C 2.417969 -8.902344 1.960938 -8.710938 1.566406 -8.328125 C 1.351562 -8.121094 1.117188 -7.804688 0.867188 -7.371094 L 0.648438 -7.417969 C 0.835938 -8.132812 1.1875 -8.707031 1.699219 -9.132812 C 2.210938 -9.5625 2.804688 -9.773438 3.476562 -9.773438 C 4.195312 -9.773438 4.753906 -9.578125 5.144531 -9.183594 C 5.539062 -8.789062 5.734375 -8.332031 5.734375 -7.816406 C 5.734375 -7.359375 5.570312 -6.941406 5.246094 -6.558594 C 5.0625 -6.34375 4.78125 -6.101562 4.394531 -5.832031 C 4.84375 -5.640625 5.207031 -5.414062 5.480469 -5.15625 C 5.992188 -4.664062 6.25 -4.035156 6.25 -3.28125 C 6.25 -2.386719 5.898438 -1.597656 5.195312 -0.917969 C 4.492188 -0.234375 3.492188 0.105469 2.195312 0.105469 C 1.617188 0.105469 1.210938 0.0195312 0.976562 -0.152344 C 0.742188 -0.324219 0.628906 -0.507812 0.628906 -0.707031 C 0.628906 -0.828125 0.667969 -0.945312 0.742188 -1.058594 C 0.820312 -1.171875 0.949219 -1.226562 1.121094 -1.226562 Z "/>
</g>
<g id="glyph-0-5">
<path d="M 0.429688 -0.164062 C 2.152344 -1.949219 3.320312 -3.261719 3.933594 -4.097656 C 4.550781 -4.933594 4.859375 -5.75 4.859375 -6.546875 C 4.859375 -7.242188 4.671875 -7.769531 4.296875 -8.136719 C 3.917969 -8.5 3.46875 -8.683594 2.949219 -8.683594 C 2.304688 -8.683594 1.78125 -8.445312 1.382812 -7.976562 C 1.160156 -7.71875 0.949219 -7.320312 0.746094 -6.785156 L 0.445312 -6.847656 C 0.679688 -7.929688 1.078125 -8.679688 1.640625 -9.101562 C 2.203125 -9.523438 2.804688 -9.734375 3.449219 -9.734375 C 4.242188 -9.734375 4.886719 -9.484375 5.378906 -8.980469 C 5.871094 -8.480469 6.113281 -7.867188 6.113281 -7.144531 C 6.113281 -6.375 5.847656 -5.628906 5.316406 -4.914062 C 4.785156 -4.199219 3.632812 -2.929688 1.855469 -1.101562 L 5.09375 -1.101562 C 5.542969 -1.101562 5.859375 -1.15625 6.042969 -1.261719 C 6.226562 -1.371094 6.433594 -1.632812 6.664062 -2.050781 L 6.847656 -1.96875 L 6.066406 0 L 0.429688 0 Z "/>
</g>
<g id="glyph-0-6">
<path d="M 6.445312 -3.710938 L 4.773438 -7.6875 L 3.125 -3.710938 Z M 0.210938 0 L 0.210938 -0.261719 C 0.582031 -0.304688 0.863281 -0.445312 1.046875 -0.683594 C 1.234375 -0.921875 1.550781 -1.574219 2.003906 -2.636719 L 5.015625 -9.726562 L 5.296875 -9.726562 L 8.894531 -1.539062 C 9.132812 -0.992188 9.324219 -0.65625 9.46875 -0.527344 C 9.613281 -0.398438 9.851562 -0.308594 10.191406 -0.261719 L 10.191406 0 L 6.515625 0 L 6.515625 -0.261719 C 6.941406 -0.296875 7.210938 -0.34375 7.335938 -0.398438 C 7.457031 -0.453125 7.519531 -0.585938 7.519531 -0.796875 C 7.519531 -0.867188 7.496094 -0.992188 7.449219 -1.171875 C 7.402344 -1.351562 7.335938 -1.539062 7.25 -1.734375 L 6.652344 -3.125 L 2.871094 -3.125 C 2.496094 -2.179688 2.269531 -1.601562 2.195312 -1.394531 C 2.125 -1.183594 2.085938 -1.019531 2.085938 -0.894531 C 2.085938 -0.652344 2.1875 -0.480469 2.382812 -0.386719 C 2.503906 -0.332031 2.738281 -0.289062 3.074219 -0.261719 L 3.074219 0 Z "/>
</g>
<g id="glyph-0-7">
<path d="M 0.164062 -0.261719 C 0.695312 -0.316406 1.039062 -0.414062 1.195312 -0.546875 C 1.351562 -0.679688 1.433594 -1.019531 1.433594 -1.566406 L 1.433594 -7.992188 C 1.433594 -8.503906 1.355469 -8.839844 1.199219 -8.996094 C 1.042969 -9.152344 0.699219 -9.25 0.164062 -9.289062 L 0.164062 -9.558594 L 4.246094 -9.558594 L 4.246094 -9.289062 C 3.714844 -9.261719 3.359375 -9.171875 3.175781 -9.027344 C 2.996094 -8.882812 2.90625 -8.570312 2.90625 -8.089844 L 2.90625 -1.148438 C 2.90625 -0.988281 2.933594 -0.863281 2.988281 -0.773438 C 3.042969 -0.679688 3.160156 -0.621094 3.34375 -0.597656 C 3.453125 -0.585938 3.566406 -0.574219 3.683594 -0.570312 C 3.804688 -0.566406 4.03125 -0.5625 4.359375 -0.5625 C 5.640625 -0.5625 6.511719 -0.671875 6.960938 -0.882812 C 7.414062 -1.09375 7.851562 -1.632812 8.273438 -2.503906 L 8.640625 -2.503906 L 7.933594 0 L 0.164062 0 Z "/>
</g>
<g id="glyph-0-8">
<path d="M 4.140625 -3.90625 C 3.597656 -3.726562 3.152344 -3.53125 2.800781 -3.316406 C 2.125 -2.898438 1.785156 -2.421875 1.785156 -1.890625 C 1.785156 -1.460938 1.925781 -1.148438 2.207031 -0.945312 C 2.390625 -0.8125 2.59375 -0.746094 2.820312 -0.746094 C 3.132812 -0.746094 3.429688 -0.835938 3.714844 -1.007812 C 4 -1.183594 4.140625 -1.402344 4.140625 -1.671875 Z M 0.527344 -1.402344 C 0.527344 -2.085938 0.871094 -2.652344 1.550781 -3.109375 C 1.984375 -3.390625 2.847656 -3.777344 4.140625 -4.261719 L 4.140625 -4.859375 C 4.140625 -5.339844 4.09375 -5.671875 4 -5.859375 C 3.839844 -6.175781 3.507812 -6.332031 3.003906 -6.332031 C 2.765625 -6.332031 2.535156 -6.273438 2.320312 -6.148438 C 2.105469 -6.023438 1.996094 -5.847656 1.996094 -5.628906 C 1.996094 -5.570312 2.007812 -5.476562 2.03125 -5.34375 C 2.054688 -5.207031 2.066406 -5.121094 2.066406 -5.085938 C 2.066406 -4.820312 1.980469 -4.636719 1.804688 -4.535156 C 1.707031 -4.472656 1.589844 -4.441406 1.453125 -4.441406 C 1.242188 -4.441406 1.078125 -4.511719 0.964844 -4.652344 C 0.851562 -4.789062 0.796875 -4.945312 0.796875 -5.113281 C 0.796875 -5.441406 1 -5.785156 1.40625 -6.148438 C 1.8125 -6.507812 2.410156 -6.6875 3.195312 -6.6875 C 4.105469 -6.6875 4.726562 -6.390625 5.050781 -5.796875 C 5.222656 -5.472656 5.3125 -5 5.3125 -4.378906 L 5.3125 -1.550781 C 5.3125 -1.277344 5.328125 -1.089844 5.367188 -0.988281 C 5.429688 -0.804688 5.554688 -0.710938 5.75 -0.710938 C 5.855469 -0.710938 5.945312 -0.730469 6.015625 -0.761719 C 6.085938 -0.792969 6.207031 -0.875 6.382812 -1 L 6.382812 -0.632812 C 6.230469 -0.449219 6.070312 -0.300781 5.894531 -0.183594 C 5.632812 -0.00390625 5.363281 0.0859375 5.09375 0.0859375 C 4.773438 0.0859375 4.539062 -0.0195312 4.398438 -0.226562 C 4.253906 -0.433594 4.175781 -0.679688 4.160156 -0.964844 C 3.804688 -0.65625 3.5 -0.425781 3.246094 -0.273438 C 2.816406 -0.0195312 2.410156 0.105469 2.023438 0.105469 C 1.621094 0.105469 1.269531 -0.0351562 0.972656 -0.320312 C 0.675781 -0.605469 0.527344 -0.964844 0.527344 -1.402344 Z "/>
</g>
<g id="glyph-0-9">
<path d="M 0.0507812 -8.972656 L 0.0507812 -9.210938 C 0.585938 -9.332031 1.066406 -9.46875 1.496094 -9.621094 C 1.921875 -9.769531 2.152344 -9.847656 2.1875 -9.847656 C 2.195312 -9.816406 2.199219 -9.789062 2.199219 -9.761719 L 2.199219 -5.464844 C 2.324219 -5.691406 2.507812 -5.90625 2.75 -6.109375 C 3.183594 -6.460938 3.679688 -6.636719 4.246094 -6.636719 C 4.9375 -6.636719 5.527344 -6.34375 6.015625 -5.761719 C 6.503906 -5.179688 6.75 -4.421875 6.75 -3.492188 C 6.75 -2.496094 6.433594 -1.640625 5.796875 -0.929688 C 5.164062 -0.21875 4.328125 0.132812 3.292969 0.132812 C 2.773438 0.132812 2.257812 0.03125 1.757812 -0.175781 C 1.253906 -0.382812 1 -0.589844 1 -0.796875 L 1 -8.25 C 1 -8.523438 0.964844 -8.71875 0.886719 -8.832031 C 0.8125 -8.949219 0.640625 -9.007812 0.367188 -9.007812 Z M 2.171875 -1.03125 C 2.214844 -0.785156 2.398438 -0.609375 2.722656 -0.503906 C 3.046875 -0.398438 3.332031 -0.34375 3.574219 -0.34375 C 4.234375 -0.34375 4.722656 -0.59375 5.039062 -1.085938 C 5.355469 -1.578125 5.515625 -2.175781 5.515625 -2.878906 C 5.515625 -3.578125 5.367188 -4.226562 5.070312 -4.820312 C 4.773438 -5.414062 4.296875 -5.710938 3.632812 -5.710938 C 3.296875 -5.710938 2.972656 -5.609375 2.652344 -5.40625 C 2.332031 -5.203125 2.171875 -4.941406 2.171875 -4.625 Z "/>
</g>
<g id="glyph-0-10">
<path d="M 2.738281 -5.859375 C 2.738281 -5.625 2.65625 -5.433594 2.492188 -5.285156 C 2.332031 -5.136719 2.144531 -5.0625 1.941406 -5.0625 C 1.714844 -5.0625 1.527344 -5.144531 1.382812 -5.304688 C 1.238281 -5.464844 1.164062 -5.648438 1.164062 -5.855469 C 1.164062 -6.070312 1.238281 -6.253906 1.390625 -6.40625 C 1.539062 -6.558594 1.722656 -6.636719 1.941406 -6.636719 C 2.148438 -6.636719 2.332031 -6.5625 2.492188 -6.414062 C 2.65625 -6.265625 2.738281 -6.082031 2.738281 -5.859375 Z M 1.917969 0.121094 C 1.722656 0.121094 1.546875 0.0429688 1.394531 -0.113281 C 1.242188 -0.269531 1.164062 -0.457031 1.164062 -0.675781 C 1.164062 -0.886719 1.238281 -1.074219 1.390625 -1.230469 C 1.539062 -1.386719 1.726562 -1.46875 1.945312 -1.46875 C 2.167969 -1.46875 2.359375 -1.390625 2.523438 -1.238281 C 2.6875 -1.085938 2.773438 -0.902344 2.773438 -0.683594 C 2.773438 -0.476562 2.695312 -0.292969 2.539062 -0.125 C 2.382812 0.0390625 2.175781 0.121094 1.917969 0.121094 Z "/>
</g>
<g id="glyph-0-11">
<path d="M 6.25 -6.933594 C 6.25 -7.816406 5.867188 -8.421875 5.105469 -8.753906 C 4.695312 -8.933594 4.179688 -9.019531 3.554688 -9.019531 C 3.257812 -9.019531 3.078125 -8.992188 3.007812 -8.933594 C 2.941406 -8.875 2.90625 -8.742188 2.90625 -8.542969 L 2.90625 -4.773438 C 3.164062 -4.75 3.332031 -4.738281 3.414062 -4.734375 C 3.492188 -4.726562 3.570312 -4.726562 3.644531 -4.726562 C 4.308594 -4.726562 4.832031 -4.820312 5.210938 -5.007812 C 5.902344 -5.351562 6.25 -5.992188 6.25 -6.933594 Z M 0.234375 -0.261719 C 0.785156 -0.3125 1.125 -0.421875 1.261719 -0.589844 C 1.398438 -0.757812 1.46875 -1.136719 1.46875 -1.734375 L 1.46875 -7.992188 C 1.46875 -8.496094 1.390625 -8.824219 1.238281 -8.984375 C 1.085938 -9.144531 0.75 -9.246094 0.234375 -9.289062 L 0.234375 -9.558594 L 4.042969 -9.558594 C 5.265625 -9.558594 6.199219 -9.320312 6.847656 -8.84375 C 7.496094 -8.371094 7.820312 -7.742188 7.820312 -6.96875 C 7.820312 -5.984375 7.460938 -5.273438 6.742188 -4.832031 C 6.023438 -4.390625 5.121094 -4.167969 4.042969 -4.167969 C 3.886719 -4.167969 3.6875 -4.171875 3.445312 -4.179688 C 3.203125 -4.1875 3.023438 -4.1875 2.90625 -4.1875 L 2.90625 -1.566406 C 2.90625 -1.019531 2.988281 -0.675781 3.15625 -0.535156 C 3.324219 -0.394531 3.695312 -0.304688 4.273438 -0.261719 L 4.273438 0 L 0.234375 0 Z "/>
</g>
<g id="glyph-0-12">
<path d="M 0.0625 -0.234375 C 0.496094 -0.269531 0.78125 -0.347656 0.925781 -0.460938 C 1.066406 -0.578125 1.136719 -0.824219 1.136719 -1.199219 L 1.136719 -4.378906 C 1.136719 -4.84375 1.09375 -5.179688 1.003906 -5.378906 C 0.917969 -5.578125 0.757812 -5.675781 0.527344 -5.675781 C 0.480469 -5.675781 0.417969 -5.671875 0.34375 -5.660156 C 0.265625 -5.648438 0.183594 -5.632812 0.0976562 -5.613281 L 0.0976562 -5.847656 C 0.367188 -5.941406 0.640625 -6.039062 0.925781 -6.136719 C 1.207031 -6.234375 1.402344 -6.304688 1.507812 -6.347656 C 1.742188 -6.4375 1.988281 -6.539062 2.234375 -6.652344 C 2.269531 -6.652344 2.289062 -6.640625 2.296875 -6.617188 C 2.304688 -6.59375 2.304688 -6.542969 2.304688 -6.46875 L 2.304688 -5.3125 C 2.605469 -5.730469 2.898438 -6.054688 3.175781 -6.292969 C 3.457031 -6.527344 3.746094 -6.644531 4.046875 -6.644531 C 4.289062 -6.644531 4.484375 -6.570312 4.632812 -6.429688 C 4.785156 -6.285156 4.859375 -6.105469 4.859375 -5.890625 C 4.859375 -5.695312 4.800781 -5.535156 4.6875 -5.402344 C 4.570312 -5.269531 4.425781 -5.203125 4.253906 -5.203125 C 4.074219 -5.203125 3.894531 -5.289062 3.714844 -5.453125 C 3.53125 -5.617188 3.390625 -5.699219 3.285156 -5.699219 C 3.121094 -5.699219 2.917969 -5.566406 2.679688 -5.300781 C 2.441406 -5.035156 2.320312 -4.761719 2.320312 -4.480469 L 2.320312 -1.296875 C 2.320312 -0.894531 2.414062 -0.613281 2.601562 -0.453125 C 2.789062 -0.296875 3.101562 -0.222656 3.539062 -0.234375 L 3.539062 0 L 0.0625 0 Z "/>
</g>
<g id="glyph-0-13">
<path d="M 3.675781 -6.503906 L 3.675781 -5.996094 L 2.234375 -5.996094 L 2.222656 -1.933594 C 2.222656 -1.574219 2.253906 -1.304688 2.3125 -1.121094 C 2.425781 -0.796875 2.648438 -0.632812 2.976562 -0.632812 C 3.144531 -0.632812 3.292969 -0.675781 3.417969 -0.753906 C 3.542969 -0.835938 3.683594 -0.960938 3.84375 -1.136719 L 4.027344 -0.980469 L 3.871094 -0.769531 C 3.628906 -0.441406 3.367188 -0.207031 3.097656 -0.0703125 C 2.824219 0.0664062 2.558594 0.132812 2.304688 0.132812 C 1.75 0.132812 1.375 -0.113281 1.179688 -0.605469 C 1.070312 -0.875 1.015625 -1.246094 1.015625 -1.722656 L 1.015625 -5.996094 L 0.246094 -5.996094 C 0.222656 -6.007812 0.207031 -6.023438 0.195312 -6.039062 C 0.183594 -6.050781 0.175781 -6.070312 0.175781 -6.09375 C 0.175781 -6.140625 0.1875 -6.175781 0.207031 -6.203125 C 0.230469 -6.230469 0.296875 -6.289062 0.410156 -6.382812 C 0.734375 -6.652344 0.96875 -6.867188 1.109375 -7.035156 C 1.253906 -7.203125 1.589844 -7.644531 2.121094 -8.359375 C 2.183594 -8.359375 2.21875 -8.351562 2.230469 -8.34375 C 2.242188 -8.335938 2.25 -8.300781 2.25 -8.238281 L 2.25 -6.503906 Z "/>
</g>
<g id="glyph-0-14">
<path d="M 0.746094 -2.222656 L 0.980469 -2.222656 C 1.089844 -1.6875 1.234375 -1.273438 1.417969 -0.988281 C 1.746094 -0.460938 2.230469 -0.199219 2.863281 -0.199219 C 3.214844 -0.199219 3.496094 -0.296875 3.699219 -0.488281 C 3.902344 -0.683594 4.007812 -0.9375 4.007812 -1.25 C 4.007812 -1.445312 3.949219 -1.636719 3.828125 -1.820312 C 3.710938 -2.003906 3.503906 -2.183594 3.210938 -2.355469 L 2.417969 -2.808594 C 1.839844 -3.117188 1.414062 -3.429688 1.140625 -3.746094 C 0.871094 -4.058594 0.734375 -4.429688 0.734375 -4.859375 C 0.734375 -5.386719 0.921875 -5.820312 1.296875 -6.15625 C 1.671875 -6.496094 2.144531 -6.664062 2.714844 -6.664062 C 2.964844 -6.664062 3.238281 -6.617188 3.535156 -6.523438 C 3.835938 -6.429688 4.003906 -6.382812 4.042969 -6.382812 C 4.125 -6.382812 4.1875 -6.394531 4.226562 -6.417969 C 4.261719 -6.441406 4.296875 -6.480469 4.324219 -6.53125 L 4.492188 -6.53125 L 4.542969 -4.5625 L 4.324219 -4.5625 C 4.230469 -5.019531 4.101562 -5.375 3.941406 -5.628906 C 3.652344 -6.097656 3.230469 -6.332031 2.679688 -6.332031 C 2.351562 -6.332031 2.09375 -6.230469 1.902344 -6.03125 C 1.714844 -5.828125 1.621094 -5.589844 1.621094 -5.316406 C 1.621094 -4.886719 1.945312 -4.5 2.59375 -4.160156 L 3.527344 -3.660156 C 4.527344 -3.113281 5.027344 -2.480469 5.027344 -1.757812 C 5.027344 -1.203125 4.820312 -0.746094 4.40625 -0.394531 C 3.988281 -0.0429688 3.445312 0.132812 2.773438 0.132812 C 2.488281 0.132812 2.171875 0.0859375 1.8125 -0.0078125 C 1.457031 -0.101562 1.242188 -0.148438 1.179688 -0.148438 C 1.121094 -0.148438 1.070312 -0.128906 1.03125 -0.0898438 C 0.988281 -0.046875 0.953125 0 0.929688 0.0546875 L 0.746094 0.0546875 Z "/>
</g>
<g id="glyph-0-15">
<path d="M 0.5625 -3.710938 L 4.113281 -3.710938 L 4.113281 -2.808594 L 0.5625 -2.808594 Z "/>
</g>
<g id="glyph-0-16">
<path d="M 6.480469 -9.558594 L 6.480469 -9.324219 L 3.421875 0.132812 L 2.488281 0.132812 L 5.347656 -8.492188 L 2.269531 -8.492188 C 1.8125 -8.492188 1.488281 -8.417969 1.289062 -8.265625 C 1.089844 -8.117188 0.835938 -7.800781 0.527344 -7.320312 L 0.28125 -7.433594 C 0.585938 -8.1875 0.777344 -8.648438 0.851562 -8.828125 C 0.921875 -9.003906 1.019531 -9.246094 1.136719 -9.558594 Z "/>
</g>
</g>
<image id="source-7" x="0" y="0" width="0" height="0"/>
<mask id="mask-0">
<use xlink:href="#source-7"/>
</mask>
</defs>
<g fill="rgb(100%, 100%, 100%)" fill-opacity="1">
<use xlink:href="#glyph-0-0" x="30" y="30.833008"/>
<use xlink:href="#glyph-0-1" x="39" y="30.833008"/>
<use xlink:href="#glyph-0-0" x="49" y="30.833008"/>
<use xlink:href="#glyph-0-2" x="58" y="30.833008"/>
<use xlink:href="#glyph-0-3" x="62" y="30.833008"/>
<use xlink:href="#glyph-0-4" x="69" y="30.833008"/>
<use xlink:href="#glyph-0-5" x="76" y="30.833008"/>
<use xlink:href="#glyph-0-6" x="83" y="30.833008"/>
<use xlink:href="#glyph-0-2" x="93" y="30.833008"/>
<use xlink:href="#glyph-0-7" x="96" y="30.833008"/>
<use xlink:href="#glyph-0-8" x="105" y="30.833008"/>
<use xlink:href="#glyph-0-9" x="111" y="30.833008"/>
<use xlink:href="#glyph-0-2" x="118" y="30.833008"/>
<use xlink:href="#glyph-0-4" x="122" y="30.833008"/>
<use xlink:href="#glyph-0-10" x="129" y="30.833008"/>
<use xlink:href="#glyph-0-2" x="133" y="30.833008"/>
<use xlink:href="#glyph-0-11" x="137" y="30.833008"/>
<use xlink:href="#glyph-0-8" x="145" y="30.833008"/>
<use xlink:href="#glyph-0-12" x="151" y="30.833008"/>
<use xlink:href="#glyph-0-13" x="156" y="30.833008"/>
<use xlink:href="#glyph-0-14" x="160" y="30.833008"/>
<use xlink:href="#glyph-0-2" x="166" y="30.833008"/>
<use xlink:href="#glyph-0-3" x="170" y="30.833008"/>
<use xlink:href="#glyph-0-15" x="177" y="30.833008"/>
<use xlink:href="#glyph-0-16" x="182" y="30.833008"/>
</g>
</svg>
